<svg width="27" height="27" viewBox="0 0 27 27" fill="none" xmlns="http://www.w3.org/2000/svg">
<rect width="26.631" height="26.6314" rx="13.3155" transform="matrix(1 0 0 -1 0 26.6313)" fill="white" fill-opacity="0.15"/>
<path fill-rule="evenodd" clip-rule="evenodd" d="M9.54221 11.4639C9.59446 11.5163 9.65653 11.5578 9.72487 11.5862C9.79321 11.6146 9.86647 11.6292 9.94046 11.6292C10.0144 11.6292 10.0877 11.6146 10.156 11.5862C10.2244 11.5578 10.2865 11.5163 10.3387 11.4639L13.3155 8.48602L16.2922 11.4639C16.3978 11.5695 16.5411 11.6289 16.6905 11.6289C16.8398 11.6289 16.9831 11.5695 17.0887 11.4639C17.1943 11.3583 17.2537 11.215 17.2537 11.0656C17.2537 10.9163 17.1943 10.773 17.0887 10.6674L13.7137 7.29239C13.6615 7.24001 13.5994 7.19845 13.531 7.17009C13.4627 7.14174 13.3894 7.12714 13.3155 7.12714C13.2415 7.12714 13.1682 7.14174 13.0999 7.17009C13.0315 7.19845 12.9695 7.24001 12.9172 7.29239L9.54221 10.6674C9.48982 10.7196 9.44826 10.7817 9.41991 10.8501C9.39155 10.9184 9.37695 10.9917 9.37695 11.0656C9.37695 11.1396 9.39155 11.2129 9.41991 11.2812C9.44826 11.3496 9.48982 11.4116 9.54221 11.4639Z" fill="white"/>
<path fill-rule="evenodd" clip-rule="evenodd" d="M13.3164 19.5032C13.4656 19.5032 13.6087 19.4439 13.7142 19.3384C13.8196 19.2329 13.8789 19.0899 13.8789 18.9407V8.81567C13.8789 8.66649 13.8196 8.52341 13.7142 8.41793C13.6087 8.31244 13.4656 8.25317 13.3164 8.25317C13.1672 8.25317 13.0241 8.31244 12.9187 8.41793C12.8132 8.52341 12.7539 8.66649 12.7539 8.81567V18.9407C12.7539 19.0899 12.8132 19.2329 12.9187 19.3384C13.0241 19.4439 13.1672 19.5032 13.3164 19.5032Z" fill="white"/>
</svg>
