<svg width="28" height="28" viewBox="0 0 28 28" fill="none" xmlns="http://www.w3.org/2000/svg">
<g clip-path="url(#clip0_144_3361)">
<path d="M14.0007 27.6667C14.9068 27.6667 15.7758 27.3067 16.4166 26.6659C17.0573 26.0252 17.4173 25.1562 17.4173 24.25H10.584C10.584 25.1562 10.944 26.0252 11.5847 26.6659C12.2255 27.3067 13.0945 27.6667 14.0007 27.6667Z" fill="white"/>
<path fill-rule="evenodd" clip-rule="evenodd" d="M14.0013 3.61011L12.6398 3.88515C11.0954 4.19983 9.70712 5.03845 8.71 6.25909C7.71288 7.47973 7.16814 9.00739 7.16797 10.5835C7.16797 11.6564 6.93905 14.3367 6.38384 16.9761C6.11051 18.2864 5.74151 19.6514 5.25122 20.8335H22.7514C22.2611 19.6514 21.8938 18.2881 21.6188 16.9761C21.0636 14.3367 20.8346 11.6564 20.8346 10.5835C20.8341 9.00769 20.2891 7.48042 19.2921 6.26014C18.295 5.03985 16.907 4.20148 15.3628 3.88686L14.0013 3.6084V3.61011ZM24.6271 20.8335C25.0081 21.5972 25.4488 22.2019 25.9596 22.5419H2.04297C2.55376 22.2019 2.99451 21.5972 3.37547 20.8335C4.91297 17.7585 5.45964 12.0869 5.45964 10.5835C5.45964 6.44936 8.39797 2.99853 12.3015 2.21098C12.2777 1.97345 12.3039 1.73355 12.3784 1.50676C12.453 1.27998 12.5743 1.07134 12.7344 0.8943C12.8946 0.717263 13.0901 0.575758 13.3083 0.478913C13.5265 0.382067 13.7626 0.332031 14.0013 0.332031C14.24 0.332031 14.4761 0.382067 14.6943 0.478913C14.9125 0.575758 15.108 0.717263 15.2682 0.8943C15.4283 1.07134 15.5496 1.27998 15.6242 1.50676C15.6987 1.73355 15.7249 1.97345 15.7011 2.21098C17.632 2.60373 19.3678 3.65173 20.6147 5.17751C21.8615 6.70329 22.5427 8.61309 22.543 10.5835C22.543 12.0869 23.0896 17.7585 24.6271 20.8335Z" fill="white"/>
</g>
<defs>
<clipPath id="clip0_144_3361">
<rect width="27.3333" height="27.3333" fill="white" transform="translate(0.333984 0.333252)"/>
</clipPath>
</defs>
</svg>
